<?xml version="1.0" encoding="UTF-8"?>
<svg xmlns="http://www.w3.org/2000/svg" xmlns:xlink="http://www.w3.org/1999/xlink" width="375pt" height="374.999991pt" viewBox="0 0 375 374.999991" version="1.2">
<defs>
<clipPath id="clip1">
  <path d="M 209.226562 126.074219 L 374.898438 126.074219 L 374.898438 172.4375 L 209.226562 172.4375 Z M 209.226562 126.074219 "/>
</clipPath>
<clipPath id="clip2">
  <path d="M 145 181 L 371 181 L 371 297.433594 L 145 297.433594 Z M 145 181 "/>
</clipPath>
</defs>
<g id="surface1">
<path style=" stroke:none;fill-rule:evenodd;fill:rgb(36.468506%,38.038635%,63.919067%);fill-opacity:1;" d="M 72.167969 239.53125 C 69.734375 240.332031 67.175781 240.730469 64.558594 240.558594 C 62.503906 240.421875 60.523438 239.933594 58.667969 239.085938 C 54.996094 237.410156 52.214844 234.535156 50.203125 231.210938 C 49.492188 230.917969 48.800781 230.636719 48.128906 230.355469 C 50.171875 236.167969 53.949219 241.804688 59.894531 244.519531 C 61.890625 245.429688 64.019531 245.953125 66.230469 246.097656 C 71.214844 246.429688 75.992188 244.839844 80.207031 242.3125 C 77.449219 241.382812 74.765625 240.453125 72.167969 239.53125 "/>
<path style=" stroke:none;fill-rule:evenodd;fill:rgb(36.468506%,38.038635%,63.919067%);fill-opacity:1;" d="M 228.191406 178.445312 C 252.351562 175.289062 258.765625 202.125 253.289062 222.824219 C 270.257812 210.792969 298.132812 192.28125 326.527344 184.9375 C 327.011719 179.917969 328.039062 171.609375 330.910156 163.792969 C 335.066406 152.460938 343.839844 143.835938 356.222656 152.003906 C 343.960938 146.226562 337.355469 153.347656 333.285156 165.289062 C 330.621094 173.089844 329.667969 181.261719 329.992188 186.371094 C 296.871094 200.132812 264.371094 220.386719 240.734375 242.574219 C 253.214844 213.898438 254.152344 185.089844 228.191406 178.445312 "/>
<path style=" stroke:none;fill-rule:evenodd;fill:rgb(36.468506%,38.038635%,63.919067%);fill-opacity:1;" d="M 228.191406 178.445312 C 252.351562 175.289062 258.765625 202.125 253.289062 222.824219 C 272.089844 209.484375 296.148438 192.621094 329.992188 186.371094 C 293.132812 200.601562 266.101562 218.757812 240.734375 242.574219 C 253.214844 213.898438 254.152344 185.089844 228.191406 178.445312 "/>
<path style=" stroke:none;fill-rule:evenodd;fill:rgb(36.468506%,38.038635%,63.919067%);fill-opacity:1;" d="M 194.605469 165.234375 C 155.648438 195.730469 145.292969 191.640625 97.382812 183.921875 L 42.0625 173.675781 L 98.183594 179.476562 C 144.074219 186.398438 153.210938 190.738281 194.605469 165.234375 "/>
<path style=" stroke:none;fill-rule:evenodd;fill:rgb(36.468506%,38.038635%,63.919067%);fill-opacity:1;" d="M 171.054688 166.453125 C 169.347656 170.136719 166.238281 172.773438 162.476562 175.109375 C 159.6875 176.839844 156.066406 178.253906 150.53125 178.851562 C 129.746094 181.089844 119.453125 175.476562 106.308594 173.917969 C 119.371094 172.824219 135.664062 178.554688 148.085938 176.25 C 150.734375 175.761719 152.945312 175.054688 154.496094 174.09375 C 157.832031 172.019531 160.59375 169.679688 162.109375 166.410156 L 162.246094 166.109375 C 161.726562 166.015625 161.175781 165.925781 160.597656 165.832031 C 144.53125 163.230469 132.191406 162.910156 123.59375 164.601562 C 132.410156 162.144531 145.546875 161.976562 162.992188 164.40625 C 163.304688 163.640625 163.554688 162.953125 163.734375 162.328125 C 162.3125 161.488281 159.804688 161.015625 156.019531 160.550781 C 140.011719 158.585938 127.796875 158.738281 119.355469 160.75 C 128.863281 157.6875 143.675781 157.179688 163.800781 159.652344 L 164.023438 159.679688 C 163.609375 157.347656 160.710938 156.691406 154.398438 156.1875 C 137.820312 154.875 125.246094 155.5625 116.65625 157.976562 C 126.289062 154.441406 141.519531 153.289062 162.367188 154.9375 C 173.941406 155.855469 175.324219 157.242188 171.054688 166.453125 "/>
<path style=" stroke:none;fill-rule:evenodd;fill:rgb(36.468506%,38.038635%,63.919067%);fill-opacity:1;" d="M 341.539062 135.480469 C 305.230469 127.300781 241.449219 128.390625 209.519531 133.902344 L 209.894531 128.898438 C 241.738281 124.582031 305.332031 125.902344 341.539062 135.480469 "/>
<path style=" stroke:none;fill-rule:evenodd;fill:rgb(36.468506%,38.038635%,63.919067%);fill-opacity:1;" d="M 216.085938 132.894531 C 213.742188 133.058594 211.859375 133.734375 209.519531 133.902344 C 193.53125 115.039062 206.816406 91.410156 240.960938 89.910156 C 276.804688 88.332031 310.273438 111.003906 329.84375 132.210938 C 305.066406 113.050781 283.554688 93.570312 245.796875 95.507812 C 219.523438 96.859375 199.980469 111.851562 216.085938 132.894531 "/>
<path style=" stroke:none;fill-rule:evenodd;fill:rgb(36.468506%,38.038635%,63.919067%);fill-opacity:1;" d="M 230.046875 181.464844 C 229.285156 181.429688 228.53125 181.464844 227.78125 181.539062 C 229.445312 181.636719 231.039062 182.050781 232.527344 182.789062 C 237.128906 185.070312 239.996094 190.019531 241.511719 195.191406 C 242.542969 198.703125 243.023438 202.492188 243.066406 206.320312 C 243.113281 210.175781 242.71875 214.078125 242 217.839844 C 241.105469 222.507812 239.636719 227.246094 237.648438 231.71875 C 235.644531 236.21875 233.089844 240.453125 230.035156 244.109375 C 227.730469 246.863281 224.960938 249.441406 221.921875 251.277344 C 218.875 253.121094 215.554688 254.222656 212.152344 254 C 210.375 253.882812 208.671875 253.402344 207.09375 252.546875 C 202.375 249.988281 199.5625 244.605469 198.179688 239.09375 C 197.523438 236.488281 197.160156 233.769531 197.027344 231.015625 C 196.929688 235.300781 197.3125 239.566406 198.3125 243.582031 C 199.820312 249.566406 202.851562 255.414062 207.953125 258.179688 C 209.652344 259.105469 211.496094 259.617188 213.425781 259.746094 C 217.09375 259.988281 220.679688 258.8125 223.96875 256.824219 C 227.246094 254.835938 230.242188 252.035156 232.726562 249.054688 C 236.023438 245.105469 238.765625 240.507812 240.921875 235.640625 C 243.066406 230.800781 244.632812 225.675781 245.589844 220.632812 C 246.355469 216.574219 246.769531 212.34375 246.707031 208.183594 C 246.648438 204.054688 246.121094 199.980469 245 196.191406 C 243.355469 190.617188 240.25 185.277344 235.289062 182.820312 C 233.648438 182.007812 231.882812 181.554688 230.046875 181.464844 "/>
<path style=" stroke:none;fill-rule:evenodd;fill:rgb(36.468506%,38.038635%,63.919067%);fill-opacity:1;" d="M 233.765625 182.890625 C 234.984375 183.464844 236.105469 184.1875 237.144531 185.03125 C 236.089844 188.625 235.0625 192.136719 234.050781 195.5625 C 232.207031 201.824219 230.4375 207.835938 228.738281 213.636719 C 232.203125 213.578125 235.664062 213.527344 239.136719 213.472656 C 241.453125 213.4375 243.777344 213.394531 246.105469 213.359375 C 245.914062 216.851562 245.410156 220.4375 244.597656 224.019531 C 242 224.601562 239.40625 225.179688 236.816406 225.753906 C 235.328125 226.085938 233.847656 226.414062 232.363281 226.738281 C 231.417969 230.136719 229.367188 233.21875 226.851562 234.277344 C 226.902344 236.433594 226.953125 238.546875 227 240.628906 C 227.101562 244.597656 227.207031 248.464844 227.289062 252.234375 C 225.292969 253.527344 223.25 254.503906 221.207031 255.136719 C 220.632812 251.703125 220.050781 248.175781 219.449219 244.570312 C 218.914062 241.324219 218.355469 238.003906 217.792969 234.605469 C 217.363281 234.492188 216.960938 234.304688 216.585938 234.085938 C 214.140625 236.375 211.746094 238.625 209.386719 240.84375 C 206.765625 243.3125 204.175781 245.714844 201.636719 248.09375 C 200.328125 246.21875 199.210938 244.050781 198.300781 241.640625 C 200.667969 238.652344 203.105469 235.613281 205.578125 232.503906 C 207.6875 229.851562 209.851562 227.148438 212.054688 224.382812 C 211.925781 228.070312 213.039062 231.117188 214.996094 232.550781 C 212.523438 228.652344 212.964844 223.242188 214.847656 218.898438 C 216.71875 214.574219 220.039062 211.253906 223.375 211.4375 C 224.734375 211.515625 225.730469 212.210938 226.695312 213.089844 C 227.691406 213.984375 228.691406 214.871094 229.691406 215.761719 C 228.347656 214.300781 226.183594 212.53125 225.074219 211.484375 C 224.257812 210.710938 223.261719 210.242188 222.125 210.179688 C 218.085938 209.957031 213.753906 214.914062 212.433594 221.289062 C 212.417969 221.34375 212.40625 221.402344 212.398438 221.449219 C 210.441406 218.859375 208.460938 216.234375 206.441406 213.554688 C 204.542969 211.035156 202.609375 208.464844 200.65625 205.859375 C 202.148438 202.371094 203.910156 199.121094 205.871094 196.222656 C 207.886719 198.1875 209.914062 200.152344 211.949219 202.121094 C 214.738281 204.816406 217.476562 207.480469 220.164062 210.097656 C 222.199219 204.378906 224.3125 198.441406 226.5 192.28125 C 227.722656 188.839844 228.96875 185.335938 230.234375 181.753906 C 231.433594 181.976562 232.617188 182.351562 233.765625 182.890625 Z M 229.902344 227.277344 C 230.941406 224.679688 231.378906 219.964844 228.988281 218.734375 C 230.375 220.914062 228.535156 225.894531 227.246094 227.867188 C 226.332031 229.265625 224.945312 230.523438 223.3125 230.273438 C 223.964844 231.78125 225.261719 232.234375 226.550781 231.570312 C 228.160156 230.742188 229.242188 229.015625 229.902344 227.277344 "/>
<path style=" stroke:none;fill-rule:evenodd;fill:rgb(36.468506%,38.038635%,63.919067%);fill-opacity:1;" d="M 348.355469 151.597656 C 347.984375 151.621094 347.617188 151.675781 347.253906 151.757812 C 348.074219 151.71875 348.875 151.859375 349.644531 152.179688 C 352.015625 153.167969 353.683594 155.683594 354.695312 158.371094 C 356.066406 161.992188 356.429688 166.25 356.140625 170.222656 C 355.785156 175.128906 354.390625 180.222656 351.933594 184.214844 C 350.085938 187.214844 347.355469 189.964844 344.167969 190.144531 C 343.328125 190.191406 342.507812 190.050781 341.714844 189.722656 C 339.347656 188.734375 337.679688 186.21875 336.664062 183.535156 C 336.183594 182.257812 335.824219 180.90625 335.578125 179.515625 C 335.820312 181.691406 336.285156 183.824219 337.027344 185.78125 C 338.117188 188.671875 339.914062 191.378906 342.460938 192.441406 C 343.3125 192.792969 344.195312 192.941406 345.097656 192.890625 C 348.53125 192.699219 351.46875 189.742188 353.453125 186.515625 C 356.097656 182.21875 357.597656 176.738281 357.980469 171.460938 C 358.289062 167.191406 357.898438 162.609375 356.429688 158.710938 C 355.335938 155.820312 353.539062 153.117188 350.992188 152.054688 C 350.140625 151.699219 349.257812 151.550781 348.355469 151.597656 "/>
<path style=" stroke:none;fill-rule:evenodd;fill:rgb(36.468506%,38.038635%,63.919067%);fill-opacity:1;" d="M 350.09375 152.179688 C 350.710938 152.421875 351.292969 152.753906 351.839844 153.160156 C 351.535156 155.152344 351.242188 157.09375 350.953125 158.984375 C 350.433594 162.40625 349.9375 165.671875 349.460938 168.789062 C 351.09375 168.570312 352.71875 168.347656 354.347656 168.128906 C 355.4375 167.984375 356.527344 167.839844 357.617188 167.6875 C 357.707031 169.507812 357.652344 171.382812 357.453125 173.265625 L 353.917969 174.585938 L 351.894531 175.335938 C 351.640625 177.121094 350.855469 178.796875 349.746094 179.472656 L 350.171875 182.660156 C 350.433594 184.636719 350.695312 186.554688 350.941406 188.410156 C 350.097656 189.160156 349.210938 189.753906 348.3125 190.183594 C 347.855469 188.527344 347.378906 186.816406 346.898438 185.058594 C 346.460938 183.46875 346.011719 181.835938 345.546875 180.148438 C 345.339844 180.117188 345.140625 180.050781 344.953125 179.953125 L 342 183.773438 C 340.933594 185.152344 339.878906 186.503906 338.851562 187.835938 C 338.121094 186.980469 337.460938 185.964844 336.878906 184.808594 C 337.792969 183.171875 338.742188 181.5 339.703125 179.78125 C 340.527344 178.3125 341.371094 176.808594 342.234375 175.273438 C 342.402344 177.164062 343.109375 178.652344 344.113281 179.269531 L 344.074219 179.222656 L 344.035156 179.171875 C 341.550781 176.011719 343.296875 168.140625 346.796875 167.945312 C 347.671875 167.898438 348.304688 168.496094 348.933594 168.980469 L 350.03125 169.847656 C 349.316406 169.15625 348.191406 168.355469 347.605469 167.875 C 347.175781 167.511719 346.675781 167.324219 346.132812 167.355469 C 344.203125 167.464844 342.449219 170.289062 342.21875 173.664062 L 342.214844 173.746094 C 341.128906 172.519531 340.023438 171.269531 338.894531 169.988281 C 337.824219 168.777344 336.734375 167.539062 335.617188 166.273438 C 336.097656 164.34375 336.726562 162.527344 337.480469 160.867188 L 340.785156 163.675781 C 342.289062 164.949219 343.757812 166.199219 345.195312 167.421875 C 345.820312 164.304688 346.472656 161.042969 347.152344 157.632812 C 347.53125 155.71875 347.921875 153.761719 348.324219 151.75 C 348.917969 151.804688 349.507812 151.945312 350.09375 152.179688 Z M 350.777344 175.75 C 351.042969 174.457031 351.136719 171.949219 349.871094 171.414062 C 350.753906 172.738281 349.90625 177.734375 347.871094 177.644531 C 348.796875 179.367188 350.324219 177.707031 350.777344 175.75 "/>
<path style=" stroke:none;fill-rule:evenodd;fill:rgb(36.468506%,38.038635%,63.919067%);fill-opacity:1;" d="M 252.804688 189.207031 C 259.683594 195.230469 261.558594 203.730469 261.710938 207.902344 C 268.003906 203.4375 278.242188 199.730469 289.570312 197.640625 C 277.234375 202.398438 265.683594 209.121094 257.195312 217.089844 C 258.589844 209.390625 257.371094 194.777344 252.804688 189.207031 "/>
<g clip-path="url(#clip1)" clip-rule="nonzero">
<path style=" stroke:none;fill-rule:evenodd;fill:rgb(36.468506%,38.038635%,63.919067%);fill-opacity:1;" d="M 364.832031 172.136719 C 369.34375 166.320312 373.679688 159.660156 372.179688 153.898438 C 368.769531 140.796875 331.816406 134.957031 319.753906 133.734375 C 283.921875 130.105469 235.363281 129.605469 209.519531 133.902344 L 209.894531 128.898438 C 235.683594 125.4375 283.546875 125.480469 319.808594 130.601562 C 332.925781 132.453125 372.710938 138.835938 374.804688 154.078125 C 375.707031 160.613281 369.9375 167.496094 364.832031 172.136719 "/>
</g>
<path style=" stroke:none;fill-rule:evenodd;fill:rgb(36.468506%,38.038635%,63.919067%);fill-opacity:1;" d="M 318.175781 120.78125 C 318.335938 119.621094 318.785156 116.429688 319.175781 115.472656 C 319.597656 114.425781 320.683594 113.800781 321.867188 113.914062 C 328.4375 114.5625 334.132812 116.542969 339.042969 119.734375 C 340.054688 120.390625 340.4375 121.578125 339.980469 122.648438 C 338.996094 124.964844 337.816406 126.808594 336.417969 128.097656 C 335.960938 128.523438 335.417969 128.753906 334.773438 128.792969 C 332.722656 128.921875 330.578125 128.914062 328.363281 128.792969 C 329.640625 128.820312 331.039062 128.660156 332.25 128.582031 C 332.804688 128.546875 333.265625 128.355469 333.65625 127.988281 C 334.851562 126.886719 335.707031 125.457031 336.550781 123.476562 C 336.941406 122.558594 336.613281 121.542969 335.753906 120.984375 C 331.554688 118.257812 326.683594 116.5625 321.066406 116.011719 C 320.296875 115.933594 319.550781 116.035156 319.148438 117.367188 C 319.019531 117.789062 318.765625 120.46875 318.710938 121.160156 C 318.679688 121.605469 318.316406 121.265625 318.175781 120.78125 "/>
<path style=" stroke:none;fill-rule:evenodd;fill:rgb(36.468506%,38.038635%,63.919067%);fill-opacity:1;" d="M 314.804688 127.4375 C 316.605469 127.664062 318.398438 127.902344 320.195312 128.15625 C 320.285156 128.167969 320.378906 128.183594 320.46875 128.195312 C 298.039062 110.730469 278.355469 96.316406 245.933594 97.980469 C 238.867188 98.34375 231.355469 99.785156 225.015625 102.835938 C 222.789062 103.910156 220.597656 105.246094 218.699219 106.859375 C 219.960938 106.015625 221.292969 105.273438 222.636719 104.625 C 228.972656 101.574219 236.484375 100.132812 243.554688 99.773438 C 274.386719 98.1875 293.695312 111.148438 314.804688 127.4375 Z M 310.328125 126.84375 C 295.761719 114.796875 280.671875 105.453125 261.023438 102.140625 C 277.507812 106.433594 290.792969 115.15625 303.734375 125.960938 L 310.328125 126.84375 "/>
<path style=" stroke:none;fill-rule:evenodd;fill:rgb(36.468506%,38.038635%,63.919067%);fill-opacity:1;" d="M 36.347656 226.042969 C 51.519531 231.203125 154.863281 257.445312 176.996094 253.453125 C 171.066406 235.640625 171.617188 208.007812 185.195312 189.484375 C 199.53125 169.929688 222.273438 166.328125 243.742188 167.324219 C 272.652344 168.664062 301.601562 177.65625 326.832031 160.707031 C 303.117188 181.164062 273.105469 172.582031 245.289062 171.3125 C 225.304688 170.40625 206.453125 173.277344 191.882812 193.40625 C 177.683594 213.019531 184.09375 250.582031 188.363281 261.125 C 144.683594 268.585938 58.800781 236.636719 36.347656 226.042969 "/>
<path style=" stroke:none;fill-rule:evenodd;fill:rgb(36.468506%,38.038635%,63.919067%);fill-opacity:1;" d="M 101.890625 239.265625 L 98.75 238.523438 C 98.90625 236.433594 99.066406 234.347656 99.21875 232.261719 C 99.242188 231.941406 99.265625 231.617188 99.292969 231.292969 L 95.875 230.355469 L 67.863281 222.660156 L 96.445312 228.566406 C 98.496094 228.988281 100.546875 229.414062 102.59375 229.835938 C 102.527344 230.753906 102.457031 231.671875 102.386719 232.585938 L 101.890625 239.265625 "/>
<path style=" stroke:none;fill-rule:evenodd;fill:rgb(36.468506%,38.038635%,63.919067%);fill-opacity:1;" d="M 249.753906 90 C 205.296875 87.054688 127.757812 83.429688 80.878906 117.140625 C 125.9375 77.699219 198.003906 84.332031 249.753906 90 "/>
<g clip-path="url(#clip2)" clip-rule="nonzero">
<path style=" stroke:none;fill-rule:evenodd;fill:rgb(36.468506%,38.038635%,63.919067%);fill-opacity:1;" d="M 200.210938 278.105469 L 221.722656 262.738281 L 186 280.871094 C 195.34375 275.03125 204.742188 269.277344 214.199219 263.609375 C 218.496094 263.652344 222.5625 262.230469 226.171875 260.046875 C 229.90625 257.785156 233.199219 254.699219 235.933594 251.421875 C 237.789062 249.195312 239.457031 246.816406 240.941406 244.34375 C 275.039062 226.476562 310.28125 208.9375 341.660156 194.394531 C 342.496094 194.726562 343.375 194.925781 344.269531 194.980469 C 295.621094 220.621094 247.757812 248.613281 200.210938 278.105469 Z M 354.875 188.34375 C 360.316406 185.882812 365.617188 183.53125 370.730469 181.308594 L 370.726562 181.308594 L 370.734375 181.308594 C 364.996094 184.210938 359.265625 187.148438 353.554688 190.121094 C 354.03125 189.542969 354.472656 188.945312 354.875 188.34375 Z M 213.960938 263.605469 C 194.25 274.570312 175.675781 285.160156 159.558594 294.671875 L 201.203125 267.898438 L 145.117188 297.433594 C 163.433594 286.554688 184.75 274.523438 207.414062 262.222656 C 209.21875 262.988281 211.140625 263.4375 213.140625 263.570312 C 213.414062 263.589844 213.6875 263.597656 213.960938 263.605469 "/>
</g>
<path style=" stroke:none;fill-rule:evenodd;fill:rgb(36.468506%,38.038635%,63.919067%);fill-opacity:1;" d="M 49.148438 265.449219 L 70.664062 250.085938 L 34.941406 268.214844 C 44.894531 261.996094 54.914062 255.867188 65 249.84375 C 65.3125 249.875 65.628906 249.902344 65.945312 249.921875 C 70.140625 250.199219 74.195312 249.363281 77.964844 247.796875 C 68.34375 253.613281 58.742188 259.5 49.148438 265.449219 Z M 64.914062 249.832031 C 44.453125 261.195312 25.160156 272.183594 8.496094 282.015625 L 50.144531 255.242188 L -5.941406 284.78125 C 13.023438 273.515625 35.210938 261.011719 58.777344 248.253906 C 60.730469 249.070312 62.792969 249.597656 64.914062 249.832031 "/>
</g>
</svg>
